<mxfile host="app.diagrams.net" agent="Mozilla/5.0 (X11; Ubuntu; Linux x86_64; rv:133.0) Gecko/20100101 Firefox/133.0" version="26.0.2" pages="2">
  <diagram id="R2lEEEUBdFMjLlhIrx00" name="Page-1">
    <mxGraphModel dx="2384" dy="1144" grid="1" gridSize="10" guides="1" tooltips="1" connect="1" arrows="1" fold="1" page="1" pageScale="1" pageWidth="850" pageHeight="1100" math="0" shadow="0" extFonts="Permanent Marker^https://fonts.googleapis.com/css?family=Permanent+Marker">
      <root>
        <mxCell id="0" />
        <mxCell id="1" parent="0" />
        <mxCell id="C-vyLk0tnHw3VtMMgP7b-12" value="" style="edgeStyle=entityRelationEdgeStyle;endArrow=ERzeroToMany;startArrow=ERone;endFill=1;startFill=0;" parent="1" target="C-vyLk0tnHw3VtMMgP7b-17" edge="1">
          <mxGeometry width="100" height="100" relative="1" as="geometry">
            <mxPoint x="700" y="165" as="sourcePoint" />
            <mxPoint x="460" y="205" as="targetPoint" />
          </mxGeometry>
        </mxCell>
        <mxCell id="6VimKkQfXgGvhkLUE6uw-1" value="Primary Service" style="rounded=0;whiteSpace=wrap;html=1;" vertex="1" parent="1">
          <mxGeometry x="380" y="240" width="120" height="60" as="geometry" />
        </mxCell>
        <mxCell id="6VimKkQfXgGvhkLUE6uw-2" value="&lt;h1 style=&quot;margin-top: 0px;&quot;&gt;Primary Service&lt;br&gt;&lt;/h1&gt;&lt;p&gt;The Primary Service get started when a service cannot connect to the specified primary service.&lt;/p&gt;&lt;p&gt;It works as a beacon for service to register it IP address, port and functions. When another&amp;nbsp; service connects to it and asks for the list of service available it get handed the services it has. &lt;br&gt;&lt;/p&gt;&lt;p&gt;It keeps track of the services which are online, and when one new service is connected on reconnected it broadcast the service to all of the other services.&lt;br&gt;&lt;/p&gt;" style="text;html=1;whiteSpace=wrap;overflow=hidden;rounded=0;" vertex="1" parent="1">
          <mxGeometry x="530" y="80" width="360" height="200" as="geometry" />
        </mxCell>
        <mxCell id="6VimKkQfXgGvhkLUE6uw-4" value="Service (Scrapper)" style="rounded=0;whiteSpace=wrap;html=1;" vertex="1" parent="1">
          <mxGeometry x="160" y="400" width="120" height="60" as="geometry" />
        </mxCell>
        <mxCell id="6VimKkQfXgGvhkLUE6uw-5" value="&lt;div&gt;Node (Scrapper)&lt;br&gt;&lt;/div&gt;" style="whiteSpace=wrap;html=1;aspect=fixed;" vertex="1" parent="1">
          <mxGeometry x="-40" y="310" width="80" height="80" as="geometry" />
        </mxCell>
        <mxCell id="6VimKkQfXgGvhkLUE6uw-9" value="Service (Log)" style="rounded=0;whiteSpace=wrap;html=1;" vertex="1" parent="1">
          <mxGeometry x="620" y="400" width="120" height="60" as="geometry" />
        </mxCell>
        <mxCell id="6VimKkQfXgGvhkLUE6uw-12" value="&lt;div&gt;Node&lt;/div&gt;" style="whiteSpace=wrap;html=1;aspect=fixed;" vertex="1" parent="1">
          <mxGeometry x="820" y="390" width="80" height="80" as="geometry" />
        </mxCell>
        <mxCell id="6VimKkQfXgGvhkLUE6uw-14" value="Service (Storage)" style="rounded=0;whiteSpace=wrap;html=1;" vertex="1" parent="1">
          <mxGeometry x="620" y="630" width="120" height="60" as="geometry" />
        </mxCell>
        <mxCell id="6VimKkQfXgGvhkLUE6uw-15" value="Node" style="whiteSpace=wrap;html=1;aspect=fixed;" vertex="1" parent="1">
          <mxGeometry x="800" y="560" width="80" height="80" as="geometry" />
        </mxCell>
        <mxCell id="6VimKkQfXgGvhkLUE6uw-16" value="Node" style="whiteSpace=wrap;html=1;aspect=fixed;" vertex="1" parent="1">
          <mxGeometry x="800" y="680" width="80" height="80" as="geometry" />
        </mxCell>
        <mxCell id="6VimKkQfXgGvhkLUE6uw-17" value="Service (Master)" style="rounded=0;whiteSpace=wrap;html=1;" vertex="1" parent="1">
          <mxGeometry x="160" y="630" width="120" height="60" as="geometry" />
        </mxCell>
        <mxCell id="6VimKkQfXgGvhkLUE6uw-18" value="&lt;h1 style=&quot;margin-top: 0px;&quot;&gt;Master Service&lt;br&gt;&lt;/h1&gt;&lt;p&gt;The Master Service does not necessarily spawn any node or processes, because it does not define functions inside the service callback&lt;br&gt;&lt;/p&gt;" style="text;html=1;whiteSpace=wrap;overflow=hidden;rounded=0;" vertex="1" parent="1">
          <mxGeometry x="200" y="700" width="180" height="120" as="geometry" />
        </mxCell>
        <mxCell id="6VimKkQfXgGvhkLUE6uw-20" value="" style="endArrow=none;dashed=1;html=1;dashPattern=1 3;strokeWidth=2;rounded=0;fontSize=12;startSize=8;endSize=8;curved=1;exitX=1;exitY=1;exitDx=0;exitDy=0;entryX=0;entryY=0;entryDx=0;entryDy=0;" edge="1" parent="1" source="6VimKkQfXgGvhkLUE6uw-1" target="6VimKkQfXgGvhkLUE6uw-9">
          <mxGeometry width="50" height="50" relative="1" as="geometry">
            <mxPoint x="590" y="500" as="sourcePoint" />
            <mxPoint x="600" y="400" as="targetPoint" />
          </mxGeometry>
        </mxCell>
        <mxCell id="6VimKkQfXgGvhkLUE6uw-22" value="" style="endArrow=none;dashed=1;html=1;dashPattern=1 3;strokeWidth=2;rounded=0;fontSize=12;startSize=8;endSize=8;curved=1;exitX=0.138;exitY=0.016;exitDx=0;exitDy=0;exitPerimeter=0;" edge="1" parent="1" source="6VimKkQfXgGvhkLUE6uw-14">
          <mxGeometry width="50" height="50" relative="1" as="geometry">
            <mxPoint x="590" y="500" as="sourcePoint" />
            <mxPoint x="470" y="300" as="targetPoint" />
          </mxGeometry>
        </mxCell>
        <mxCell id="6VimKkQfXgGvhkLUE6uw-23" value="" style="endArrow=none;dashed=1;html=1;dashPattern=1 3;strokeWidth=2;rounded=0;fontSize=12;startSize=8;endSize=8;curved=1;entryX=0;entryY=1;entryDx=0;entryDy=0;" edge="1" parent="1" target="6VimKkQfXgGvhkLUE6uw-1">
          <mxGeometry width="50" height="50" relative="1" as="geometry">
            <mxPoint x="280" y="400" as="sourcePoint" />
            <mxPoint x="330" y="350" as="targetPoint" />
          </mxGeometry>
        </mxCell>
        <mxCell id="6VimKkQfXgGvhkLUE6uw-24" value="&lt;div&gt;Connect service&amp;nbsp;&lt;/div&gt;&lt;div&gt;and ask for services list&lt;/div&gt;" style="edgeLabel;html=1;align=center;verticalAlign=middle;resizable=0;points=[];fontSize=12;" vertex="1" connectable="0" parent="6VimKkQfXgGvhkLUE6uw-23">
          <mxGeometry x="0.1462" y="2" relative="1" as="geometry">
            <mxPoint x="-36" y="9" as="offset" />
          </mxGeometry>
        </mxCell>
        <mxCell id="6VimKkQfXgGvhkLUE6uw-28" value="" style="endArrow=none;dashed=1;html=1;dashPattern=1 3;strokeWidth=2;rounded=0;fontSize=12;startSize=8;endSize=8;curved=1;entryX=0.25;entryY=1;entryDx=0;entryDy=0;" edge="1" parent="1" target="6VimKkQfXgGvhkLUE6uw-1">
          <mxGeometry width="50" height="50" relative="1" as="geometry">
            <mxPoint x="267" y="630" as="sourcePoint" />
            <mxPoint x="400" y="580" as="targetPoint" />
          </mxGeometry>
        </mxCell>
        <mxCell id="6VimKkQfXgGvhkLUE6uw-29" value="" style="endArrow=classic;startArrow=classic;html=1;rounded=0;fontSize=12;startSize=8;endSize=8;curved=1;exitX=1;exitY=0.5;exitDx=0;exitDy=0;entryX=0;entryY=0.5;entryDx=0;entryDy=0;" edge="1" parent="1" source="6VimKkQfXgGvhkLUE6uw-4" target="6VimKkQfXgGvhkLUE6uw-9">
          <mxGeometry width="50" height="50" relative="1" as="geometry">
            <mxPoint x="590" y="500" as="sourcePoint" />
            <mxPoint x="640" y="450" as="targetPoint" />
          </mxGeometry>
        </mxCell>
        <mxCell id="6VimKkQfXgGvhkLUE6uw-30" value="" style="endArrow=classic;startArrow=classic;html=1;rounded=0;fontSize=12;startSize=8;endSize=8;curved=1;exitX=0.75;exitY=0;exitDx=0;exitDy=0;entryX=0.75;entryY=1;entryDx=0;entryDy=0;" edge="1" parent="1" source="6VimKkQfXgGvhkLUE6uw-17" target="6VimKkQfXgGvhkLUE6uw-4">
          <mxGeometry width="50" height="50" relative="1" as="geometry">
            <mxPoint x="370" y="630" as="sourcePoint" />
            <mxPoint x="280" y="460" as="targetPoint" />
          </mxGeometry>
        </mxCell>
        <mxCell id="6VimKkQfXgGvhkLUE6uw-31" value="" style="endArrow=classic;startArrow=classic;html=1;rounded=0;fontSize=12;startSize=8;endSize=8;curved=1;entryX=0;entryY=0;entryDx=0;entryDy=0;exitX=1;exitY=1;exitDx=0;exitDy=0;" edge="1" parent="1" source="6VimKkQfXgGvhkLUE6uw-4" target="6VimKkQfXgGvhkLUE6uw-14">
          <mxGeometry width="50" height="50" relative="1" as="geometry">
            <mxPoint x="280" y="455" as="sourcePoint" />
            <mxPoint x="330" y="405" as="targetPoint" />
          </mxGeometry>
        </mxCell>
        <mxCell id="6VimKkQfXgGvhkLUE6uw-32" value="" style="endArrow=classic;startArrow=classic;html=1;rounded=0;fontSize=12;startSize=8;endSize=8;curved=1;exitX=1;exitY=0;exitDx=0;exitDy=0;entryX=0;entryY=1;entryDx=0;entryDy=0;" edge="1" parent="1" source="6VimKkQfXgGvhkLUE6uw-17" target="6VimKkQfXgGvhkLUE6uw-9">
          <mxGeometry width="50" height="50" relative="1" as="geometry">
            <mxPoint x="380" y="630" as="sourcePoint" />
            <mxPoint x="600" y="460" as="targetPoint" />
          </mxGeometry>
        </mxCell>
        <mxCell id="6VimKkQfXgGvhkLUE6uw-33" value="" style="endArrow=classic;startArrow=classic;html=1;rounded=0;fontSize=12;startSize=8;endSize=8;curved=1;exitX=0.25;exitY=0;exitDx=0;exitDy=0;exitPerimeter=0;entryX=0.25;entryY=1;entryDx=0;entryDy=0;" edge="1" parent="1" source="6VimKkQfXgGvhkLUE6uw-14" target="6VimKkQfXgGvhkLUE6uw-9">
          <mxGeometry width="50" height="50" relative="1" as="geometry">
            <mxPoint x="590" y="500" as="sourcePoint" />
            <mxPoint x="640" y="450" as="targetPoint" />
          </mxGeometry>
        </mxCell>
        <mxCell id="6VimKkQfXgGvhkLUE6uw-35" value="Internet" style="ellipse;shape=cloud;whiteSpace=wrap;html=1;" vertex="1" parent="1">
          <mxGeometry x="-560" y="80" width="290" height="200" as="geometry" />
        </mxCell>
        <mxCell id="6VimKkQfXgGvhkLUE6uw-36" value="&lt;div&gt;Node (Scrapper)&lt;br&gt;&lt;/div&gt;" style="whiteSpace=wrap;html=1;aspect=fixed;" vertex="1" parent="1">
          <mxGeometry x="-40" y="550" width="80" height="80" as="geometry" />
        </mxCell>
        <mxCell id="6VimKkQfXgGvhkLUE6uw-37" value="&lt;div&gt;Node (Scrapper)&lt;br&gt;&lt;/div&gt;" style="whiteSpace=wrap;html=1;aspect=fixed;" vertex="1" parent="1">
          <mxGeometry x="-40" y="430" width="80" height="80" as="geometry" />
        </mxCell>
        <mxCell id="6VimKkQfXgGvhkLUE6uw-38" value="&lt;div&gt;Node (Scrapper)&lt;br&gt;&lt;/div&gt;" style="whiteSpace=wrap;html=1;aspect=fixed;" vertex="1" parent="1">
          <mxGeometry x="-40" y="670" width="80" height="80" as="geometry" />
        </mxCell>
        <mxCell id="6VimKkQfXgGvhkLUE6uw-39" value="&lt;span&gt;Slavery js&lt;/span&gt;" style="text;html=1;align=center;verticalAlign=middle;resizable=0;points=[];autosize=1;strokeColor=none;fillColor=none;fontSize=46;fontStyle=5" vertex="1" parent="1">
          <mxGeometry x="110" y="30" width="220" height="70" as="geometry" />
        </mxCell>
        <mxCell id="6VimKkQfXgGvhkLUE6uw-43" value="" style="edgeStyle=elbowEdgeStyle;elbow=vertical;endArrow=classic;html=1;curved=0;rounded=0;endSize=8;startSize=8;fontSize=12;entryX=0.55;entryY=0.95;entryDx=0;entryDy=0;entryPerimeter=0;" edge="1" parent="1" target="6VimKkQfXgGvhkLUE6uw-35">
          <mxGeometry width="50" height="50" relative="1" as="geometry">
            <mxPoint x="-40" y="360" as="sourcePoint" />
            <mxPoint x="-160" y="380" as="targetPoint" />
            <Array as="points">
              <mxPoint x="-320" y="360" />
              <mxPoint x="-220" y="350" />
              <mxPoint x="-170" y="360" />
              <mxPoint x="-280" y="370" />
            </Array>
          </mxGeometry>
        </mxCell>
        <mxCell id="6VimKkQfXgGvhkLUE6uw-44" value="" style="edgeStyle=elbowEdgeStyle;elbow=vertical;endArrow=classic;html=1;curved=0;rounded=0;endSize=8;startSize=8;fontSize=12;entryX=0.55;entryY=0.95;entryDx=0;entryDy=0;entryPerimeter=0;" edge="1" parent="1" target="6VimKkQfXgGvhkLUE6uw-35">
          <mxGeometry width="50" height="50" relative="1" as="geometry">
            <mxPoint x="-40" y="480" as="sourcePoint" />
            <mxPoint x="-400" y="290" as="targetPoint" />
            <Array as="points">
              <mxPoint x="-220" y="480" />
              <mxPoint x="-170" y="490" />
              <mxPoint x="-280" y="500" />
            </Array>
          </mxGeometry>
        </mxCell>
        <mxCell id="6VimKkQfXgGvhkLUE6uw-45" value="" style="edgeStyle=elbowEdgeStyle;elbow=vertical;endArrow=classic;html=1;curved=0;rounded=0;endSize=8;startSize=8;fontSize=12;" edge="1" parent="1">
          <mxGeometry width="50" height="50" relative="1" as="geometry">
            <mxPoint x="-40" y="600" as="sourcePoint" />
            <mxPoint x="-400" y="270" as="targetPoint" />
            <Array as="points">
              <mxPoint x="-220" y="600" />
              <mxPoint x="-170" y="610" />
              <mxPoint x="-280" y="620" />
            </Array>
          </mxGeometry>
        </mxCell>
        <mxCell id="6VimKkQfXgGvhkLUE6uw-46" value="" style="edgeStyle=elbowEdgeStyle;elbow=vertical;endArrow=classic;html=1;curved=0;rounded=0;endSize=8;startSize=8;fontSize=12;" edge="1" parent="1">
          <mxGeometry width="50" height="50" relative="1" as="geometry">
            <mxPoint x="-40" y="730" as="sourcePoint" />
            <mxPoint x="-400" y="270" as="targetPoint" />
            <Array as="points">
              <mxPoint x="-220" y="730" />
              <mxPoint x="-170" y="740" />
              <mxPoint x="-280" y="750" />
            </Array>
          </mxGeometry>
        </mxCell>
        <mxCell id="6VimKkQfXgGvhkLUE6uw-50" value="" style="endArrow=classic;startArrow=classic;html=1;rounded=0;fontSize=12;startSize=8;endSize=8;exitX=1.056;exitY=0.617;exitDx=0;exitDy=0;entryX=0;entryY=0.5;entryDx=0;entryDy=0;edgeStyle=orthogonalEdgeStyle;exitPerimeter=0;" edge="1" parent="1" source="6VimKkQfXgGvhkLUE6uw-5" target="6VimKkQfXgGvhkLUE6uw-4">
          <mxGeometry width="50" height="50" relative="1" as="geometry">
            <mxPoint x="80" y="530" as="sourcePoint" />
            <mxPoint x="130" y="480" as="targetPoint" />
          </mxGeometry>
        </mxCell>
        <mxCell id="6VimKkQfXgGvhkLUE6uw-52" value="" style="endArrow=classic;startArrow=classic;html=1;rounded=0;fontSize=12;startSize=8;endSize=8;exitX=1.025;exitY=0.627;exitDx=0;exitDy=0;edgeStyle=orthogonalEdgeStyle;exitPerimeter=0;" edge="1" parent="1" source="6VimKkQfXgGvhkLUE6uw-37">
          <mxGeometry width="50" height="50" relative="1" as="geometry">
            <mxPoint x="54" y="369" as="sourcePoint" />
            <mxPoint x="160" y="430" as="targetPoint" />
          </mxGeometry>
        </mxCell>
        <mxCell id="6VimKkQfXgGvhkLUE6uw-53" value="" style="endArrow=classic;startArrow=classic;html=1;rounded=0;fontSize=12;startSize=8;endSize=8;exitX=1.025;exitY=0.627;exitDx=0;exitDy=0;edgeStyle=orthogonalEdgeStyle;exitPerimeter=0;entryX=0;entryY=0.5;entryDx=0;entryDy=0;" edge="1" parent="1" target="6VimKkQfXgGvhkLUE6uw-4">
          <mxGeometry width="50" height="50" relative="1" as="geometry">
            <mxPoint x="41.5" y="600" as="sourcePoint" />
            <mxPoint x="159.5" y="550" as="targetPoint" />
            <Array as="points">
              <mxPoint x="42" y="601" />
              <mxPoint x="100" y="601" />
              <mxPoint x="100" y="430" />
            </Array>
          </mxGeometry>
        </mxCell>
        <mxCell id="6VimKkQfXgGvhkLUE6uw-54" value="" style="endArrow=classic;startArrow=classic;html=1;rounded=0;fontSize=12;startSize=8;endSize=8;exitX=1.025;exitY=0.627;exitDx=0;exitDy=0;edgeStyle=orthogonalEdgeStyle;exitPerimeter=0;entryX=0;entryY=0.5;entryDx=0;entryDy=0;" edge="1" parent="1" target="6VimKkQfXgGvhkLUE6uw-4">
          <mxGeometry width="50" height="50" relative="1" as="geometry">
            <mxPoint x="40" y="720" as="sourcePoint" />
            <mxPoint x="158.5" y="550" as="targetPoint" />
            <Array as="points">
              <mxPoint x="100" y="721" />
              <mxPoint x="100" y="430" />
            </Array>
          </mxGeometry>
        </mxCell>
        <mxCell id="6VimKkQfXgGvhkLUE6uw-55" value="" style="endArrow=classic;startArrow=classic;html=1;rounded=0;fontSize=12;startSize=8;endSize=8;curved=1;exitX=1;exitY=0.5;exitDx=0;exitDy=0;entryX=0;entryY=0.5;entryDx=0;entryDy=0;" edge="1" parent="1" source="6VimKkQfXgGvhkLUE6uw-9" target="6VimKkQfXgGvhkLUE6uw-12">
          <mxGeometry width="50" height="50" relative="1" as="geometry">
            <mxPoint x="740" y="500" as="sourcePoint" />
            <mxPoint x="790" y="450" as="targetPoint" />
          </mxGeometry>
        </mxCell>
        <mxCell id="6VimKkQfXgGvhkLUE6uw-56" value="Logs" style="shape=cylinder3;whiteSpace=wrap;html=1;boundedLbl=1;backgroundOutline=1;size=15;" vertex="1" parent="1">
          <mxGeometry x="1070" y="390" width="60" height="80" as="geometry" />
        </mxCell>
        <mxCell id="6VimKkQfXgGvhkLUE6uw-57" value="" style="endArrow=classic;html=1;rounded=0;fontSize=12;startSize=8;endSize=8;curved=1;entryX=0;entryY=0.5;entryDx=0;entryDy=0;entryPerimeter=0;exitX=1;exitY=0.5;exitDx=0;exitDy=0;" edge="1" parent="1" source="6VimKkQfXgGvhkLUE6uw-12" target="6VimKkQfXgGvhkLUE6uw-56">
          <mxGeometry width="50" height="50" relative="1" as="geometry">
            <mxPoint x="940" y="500" as="sourcePoint" />
            <mxPoint x="990" y="450" as="targetPoint" />
          </mxGeometry>
        </mxCell>
        <mxCell id="6VimKkQfXgGvhkLUE6uw-58" value="" style="endArrow=classic;startArrow=classic;html=1;rounded=0;fontSize=12;startSize=8;endSize=8;edgeStyle=orthogonalEdgeStyle;exitX=1;exitY=0.5;exitDx=0;exitDy=0;" edge="1" parent="1" source="6VimKkQfXgGvhkLUE6uw-14" target="6VimKkQfXgGvhkLUE6uw-15">
          <mxGeometry width="50" height="50" relative="1" as="geometry">
            <mxPoint x="910" y="690" as="sourcePoint" />
            <mxPoint x="960" y="640" as="targetPoint" />
          </mxGeometry>
        </mxCell>
        <mxCell id="6VimKkQfXgGvhkLUE6uw-59" value="" style="endArrow=classic;startArrow=classic;html=1;rounded=0;fontSize=12;startSize=8;endSize=8;edgeStyle=orthogonalEdgeStyle;exitX=1;exitY=0.5;exitDx=0;exitDy=0;entryX=0;entryY=0.5;entryDx=0;entryDy=0;" edge="1" parent="1" source="6VimKkQfXgGvhkLUE6uw-14" target="6VimKkQfXgGvhkLUE6uw-16">
          <mxGeometry width="50" height="50" relative="1" as="geometry">
            <mxPoint x="750" y="670" as="sourcePoint" />
            <mxPoint x="810" y="610" as="targetPoint" />
          </mxGeometry>
        </mxCell>
        <mxCell id="6VimKkQfXgGvhkLUE6uw-60" value="Storage" style="shape=cylinder3;whiteSpace=wrap;html=1;boundedLbl=1;backgroundOutline=1;size=15;" vertex="1" parent="1">
          <mxGeometry x="1070" y="630" width="60" height="80" as="geometry" />
        </mxCell>
        <mxCell id="6VimKkQfXgGvhkLUE6uw-61" value="" style="endArrow=classic;startArrow=classic;html=1;rounded=0;fontSize=12;startSize=8;endSize=8;entryX=0;entryY=0.5;entryDx=0;entryDy=0;entryPerimeter=0;edgeStyle=orthogonalEdgeStyle;" edge="1" parent="1" target="6VimKkQfXgGvhkLUE6uw-60">
          <mxGeometry width="50" height="50" relative="1" as="geometry">
            <mxPoint x="880" y="600" as="sourcePoint" />
            <mxPoint x="930" y="550" as="targetPoint" />
          </mxGeometry>
        </mxCell>
        <mxCell id="6VimKkQfXgGvhkLUE6uw-62" value="" style="endArrow=classic;startArrow=classic;html=1;rounded=0;fontSize=12;startSize=8;endSize=8;entryX=0;entryY=0.5;entryDx=0;entryDy=0;entryPerimeter=0;edgeStyle=orthogonalEdgeStyle;" edge="1" parent="1" target="6VimKkQfXgGvhkLUE6uw-60">
          <mxGeometry width="50" height="50" relative="1" as="geometry">
            <mxPoint x="879.5" y="720" as="sourcePoint" />
            <mxPoint x="1069.5" y="790" as="targetPoint" />
          </mxGeometry>
        </mxCell>
      </root>
    </mxGraphModel>
  </diagram>
  <diagram id="RJUt4uhxjmi_E2SKnWvM" name="Page-2">
    <mxGraphModel dx="1432" dy="1468" grid="0" gridSize="10" guides="1" tooltips="1" connect="1" arrows="1" fold="1" page="0" pageScale="1" pageWidth="850" pageHeight="1100" math="0" shadow="0">
      <root>
        <mxCell id="0" />
        <mxCell id="1" parent="0" />
        <mxCell id="uAicjH4NGvOITgstkbAG-1" value="&lt;font style=&quot;font-size: 16px;&quot;&gt;Service&lt;/font&gt;" style="rounded=0;whiteSpace=wrap;html=1;" vertex="1" parent="1">
          <mxGeometry x="116" y="-90" width="120" height="60" as="geometry" />
        </mxCell>
        <mxCell id="uAicjH4NGvOITgstkbAG-2" value="Node" style="whiteSpace=wrap;html=1;aspect=fixed;" vertex="1" parent="1">
          <mxGeometry x="136" y="183" width="80" height="80" as="geometry" />
        </mxCell>
        <mxCell id="uAicjH4NGvOITgstkbAG-3" value="Node" style="whiteSpace=wrap;html=1;aspect=fixed;" vertex="1" parent="1">
          <mxGeometry x="24" y="183" width="80" height="80" as="geometry" />
        </mxCell>
        <mxCell id="uAicjH4NGvOITgstkbAG-4" value="Node" style="whiteSpace=wrap;html=1;aspect=fixed;" vertex="1" parent="1">
          <mxGeometry x="251" y="180" width="80" height="80" as="geometry" />
        </mxCell>
        <mxCell id="uAicjH4NGvOITgstkbAG-6" value="&lt;h1 style=&quot;margin-top: 0px;&quot;&gt;Service&lt;/h1&gt;&lt;div&gt;&lt;br&gt;&lt;/div&gt;&lt;div&gt;The service spawn multiple nodes which will run the functions defined in the callback.&lt;/div&gt;&lt;div&gt;&lt;br&gt;&lt;/div&gt;&lt;div&gt;It keeps track of the connected node and the workload of each. it gives the parameters to run each function.&lt;/div&gt;&lt;div&gt;&lt;br&gt;&lt;/div&gt;&lt;div&gt;&lt;br&gt;&lt;/div&gt;&lt;div&gt;&amp;nbsp;&lt;br&gt;&lt;/div&gt;" style="text;html=1;whiteSpace=wrap;overflow=hidden;rounded=0;" vertex="1" parent="1">
          <mxGeometry x="325" y="-134" width="285" height="201" as="geometry" />
        </mxCell>
        <mxCell id="uAicjH4NGvOITgstkbAG-8" value="&lt;h1 style=&quot;margin-top: 0px;&quot;&gt;Nodes&lt;br&gt;&lt;/h1&gt;&lt;div&gt;&lt;br&gt;&lt;/div&gt;&lt;div&gt;It runs the defined functions in the masters code.&lt;/div&gt;&lt;div&gt;&lt;br&gt;&lt;/div&gt;&lt;div&gt;it return the result to the function back tot he master or a error it is encounters it. &lt;br&gt;&lt;/div&gt;&lt;div&gt;&lt;br&gt;&lt;/div&gt;&lt;div&gt;&lt;br&gt;&lt;/div&gt;&lt;div&gt;&amp;nbsp;&lt;br&gt;&lt;/div&gt;" style="text;html=1;whiteSpace=wrap;overflow=hidden;rounded=0;" vertex="1" parent="1">
          <mxGeometry x="375" y="153" width="285" height="146" as="geometry" />
        </mxCell>
        <mxCell id="uAicjH4NGvOITgstkbAG-9" value="" style="endArrow=classic;startArrow=classic;html=1;rounded=0;fontSize=12;startSize=8;endSize=8;curved=1;entryX=0.5;entryY=1;entryDx=0;entryDy=0;exitX=0.5;exitY=0;exitDx=0;exitDy=0;" edge="1" parent="1" source="uAicjH4NGvOITgstkbAG-3" target="uAicjH4NGvOITgstkbAG-1">
          <mxGeometry width="50" height="50" relative="1" as="geometry">
            <mxPoint x="90" y="179" as="sourcePoint" />
            <mxPoint x="140" y="129" as="targetPoint" />
          </mxGeometry>
        </mxCell>
        <mxCell id="uAicjH4NGvOITgstkbAG-10" value="" style="endArrow=classic;startArrow=classic;html=1;rounded=0;fontSize=12;startSize=8;endSize=8;curved=1;entryX=0.5;entryY=1;entryDx=0;entryDy=0;" edge="1" parent="1" source="uAicjH4NGvOITgstkbAG-2" target="uAicjH4NGvOITgstkbAG-1">
          <mxGeometry width="50" height="50" relative="1" as="geometry">
            <mxPoint x="139" y="179" as="sourcePoint" />
            <mxPoint x="189" y="129" as="targetPoint" />
          </mxGeometry>
        </mxCell>
        <mxCell id="uAicjH4NGvOITgstkbAG-11" value="" style="endArrow=classic;startArrow=classic;html=1;rounded=0;fontSize=12;startSize=8;endSize=8;curved=1;entryX=0.5;entryY=1;entryDx=0;entryDy=0;exitX=0.5;exitY=0;exitDx=0;exitDy=0;" edge="1" parent="1" source="uAicjH4NGvOITgstkbAG-4" target="uAicjH4NGvOITgstkbAG-1">
          <mxGeometry width="50" height="50" relative="1" as="geometry">
            <mxPoint x="139" y="179" as="sourcePoint" />
            <mxPoint x="189" y="129" as="targetPoint" />
          </mxGeometry>
        </mxCell>
        <mxCell id="uAicjH4NGvOITgstkbAG-12" value="&lt;h1 style=&quot;margin-top: 0px;&quot;&gt;Code Example:&lt;/h1&gt;&lt;div&gt;import slavery from &#39;Slavery-js&#39;&lt;/div&gt;&lt;div&gt;&lt;br&gt;&lt;/div&gt;&lt;div&gt;slavery.Service( service, { &amp;lt;other services connected&amp;gt; }){&lt;/div&gt;&lt;div&gt;&lt;span style=&quot;white-space: pre;&quot;&gt;&#x9;&lt;/span&gt;// this code will run in the service node&lt;/div&gt;&lt;div&gt;&lt;span style=&quot;white-space: pre;&quot;&gt;&#x9;&lt;/span&gt;&lt;br&gt;&lt;/div&gt;&lt;div&gt;&lt;span style=&quot;white-space: pre;&quot;&gt;&#x9;&lt;/span&gt;service.process_value = (value) =&amp;gt; {&lt;/div&gt;&lt;div&gt;&lt;span style=&quot;white-space: pre;&quot;&gt;&#x9;&lt;/span&gt;&lt;span style=&quot;white-space: pre;&quot;&gt;&#x9;&lt;/span&gt;// this code will run in the slave node which will expand as it is needed &lt;br&gt;&lt;/div&gt;&lt;div&gt;&lt;span style=&quot;white-space: pre;&quot;&gt;&#x9;&lt;/span&gt;}&lt;/div&gt;&lt;div&gt;}&lt;br&gt;&lt;/div&gt;&lt;div&gt;&lt;span style=&quot;white-space: pre;&quot;&gt;&#x9;&lt;/span&gt;&amp;nbsp;&lt;br&gt;&lt;/div&gt;&lt;div&gt;&lt;br&gt;&lt;/div&gt;" style="text;html=1;whiteSpace=wrap;overflow=hidden;rounded=0;" vertex="1" parent="1">
          <mxGeometry x="758" y="-99" width="538" height="242" as="geometry" />
        </mxCell>
      </root>
    </mxGraphModel>
  </diagram>
</mxfile>
